<?xml version="1.0" encoding="UTF-8" standalone="no"?>
<!-- Created with Inkscape (http://www.inkscape.org/) -->
<svg xmlns:dc="http://purl.org/dc/elements/1.1/" xmlns:cc="http://creativecommons.org/ns#" xmlns:rdf="http://www.w3.org/1999/02/22-rdf-syntax-ns#" xmlns:svg="http://www.w3.org/2000/svg" xmlns="http://www.w3.org/2000/svg" xmlns:sodipodi="http://sodipodi.sourceforge.net/DTD/sodipodi-0.dtd" xmlns:inkscape="http://www.inkscape.org/namespaces/inkscape" width="180" height="72" viewBox="0 0 180.00001 72" id="svg4877" version="1.1" inkscape:version="0.91 r13725" sodipodi:docname="EducationNZ-logo.svg">
  <defs id="defs4879"/>
  <sodipodi:namedview id="base" pagecolor="#ffffff" bordercolor="#666666" borderopacity="1.0" inkscape:pageopacity="0.0" inkscape:pageshadow="2" inkscape:zoom="3.6946222" inkscape:cx="72.290287" inkscape:cy="83.838969" inkscape:document-units="px" inkscape:current-layer="layer1" showgrid="false" units="px" inkscape:window-width="2560" inkscape:window-height="1411" inkscape:window-x="1920" inkscape:window-y="0" inkscape:window-maximized="1"/>
  <metadata id="metadata4882">
    <rdf:RDF>
      <cc:Work rdf:about="">
        <dc:format>image/svg+xml</dc:format>
        <dc:type rdf:resource="http://purl.org/dc/dcmitype/StillImage"/>
        <dc:title/>
      </cc:Work>
    </rdf:RDF>
  </metadata>
  <g inkscape:label="Layer 1" inkscape:groupmode="layer" id="layer1" transform="translate(0,-980.36221)">
    <g transform="matrix(1.25,0,0,1.2499999,-87.08007,578.40326)" id="g4772">
      <path style="fill:#211e1e;fill-opacity:1;fill-rule:nonzero;stroke:none" d="m 77.851562,364.51953 0,-4.15625 -1.792968,2.72266 -0.03516,0 -1.773438,-2.69532 0,4.12891 -1.375,0 0,-6.37109 1.507812,0 1.675782,2.69531 1.675781,-2.69531 1.511719,0 0,6.37109 z m 0,0" id="path212" inkscape:connector-curvature="0"/>
      <path style="fill:#211e1e;fill-opacity:1;fill-rule:nonzero;stroke:none" d="m 81.75,358.14844 1.402344,0 0,6.375 -1.402344,0 z m 0,0" id="path214" inkscape:connector-curvature="0"/>
      <path style="fill:#211e1e;fill-opacity:1;fill-rule:nonzero;stroke:none" d="m 90.214844,364.51953 -3.085938,-4.04687 0,4.04687 -1.382812,0 0,-6.37109 1.289062,0 2.988282,3.92578 0,-3.92578 1.382812,0 0,6.37109 z m 0,0" id="path216" inkscape:connector-curvature="0"/>
      <path style="fill:#211e1e;fill-opacity:1;fill-rule:nonzero;stroke:none" d="m 94.074219,358.14844 1.402343,0 0,6.375 -1.402343,0 z m 0,0" id="path218" inkscape:connector-curvature="0"/>
      <path style="fill:#211e1e;fill-opacity:1;fill-rule:nonzero;stroke:none" d="m 100.15234,364.61328 c -0.96484,0 -1.937496,-0.33594 -2.703121,-1.01953 l 0.828125,-0.99219 c 0.574218,0.47266 1.175781,0.77344 1.902346,0.77344 0.57422,0 0.92187,-0.22656 0.92187,-0.60156 l 0,-0.0156 c 0,-0.35937 -0.21875,-0.53906 -1.285154,-0.8125 -1.285156,-0.32812 -2.113281,-0.68359 -2.113281,-1.94922 l 0,-0.0156 c 0,-1.15625 0.929687,-1.92188 2.230469,-1.92188 0.929686,0 1.722656,0.29297 2.367186,0.8086 l -0.72656,1.05859 c -0.56641,-0.39453 -1.12109,-0.62891 -1.656251,-0.62891 -0.539063,0 -0.820313,0.2461 -0.820313,0.55469 l 0,0.0195 c 0,0.41797 0.273438,0.55469 1.375004,0.83594 1.29297,0.33594 2.01953,0.80078 2.01953,1.91406 l 0,0.0156 c 0,1.26562 -0.96485,1.97656 -2.33985,1.97656" id="path220" inkscape:connector-curvature="0"/>
      <path style="fill:#211e1e;fill-opacity:1;fill-rule:nonzero;stroke:none" d="m 107.23438,359.44141 0,5.08203 -1.40235,0 0,-5.08203 -1.9375,0 0,-1.29297 5.28125,0 0,1.29297 z m 0,0" id="path222" inkscape:connector-curvature="0"/>
      <path style="fill:#211e1e;fill-opacity:1;fill-rule:nonzero;stroke:none" d="m 115.15625,360.32422 c 0,-0.59766 -0.42187,-0.91016 -1.10156,-0.91016 l -1.39453,0 0,1.83203 1.41797,0 c 0.68359,0 1.07812,-0.36718 1.07812,-0.90234 z m -0.0312,4.19531 -1.36328,-2.03906 -1.10156,0 0,2.03906 -1.40235,0 0,-6.37109 2.91407,0 c 1.5,0 2.40234,0.79297 2.40234,2.10547 l 0,0.0156 c 0,1.03125 -0.55469,1.67578 -1.36328,1.97656 l 1.55469,2.27344 z m 0,0" id="path224" inkscape:connector-curvature="0"/>
      <path style="fill:#211e1e;fill-opacity:1;fill-rule:nonzero;stroke:none" d="m 121.60938,361.98047 0,2.53906 -1.40235,0 0,-2.51172 -2.44922,-3.85937 1.63672,0 1.51953,2.55859 1.55078,-2.55859 1.59375,0 z m 0,0" id="path226" inkscape:connector-curvature="0"/>
      <path style="fill:#211e1e;fill-opacity:1;fill-rule:nonzero;stroke:none" d="m 134.41406,361.33594 c 0,-1.09375 -0.80078,-2.00391 -1.92969,-2.00391 -1.1289,0 -1.91015,0.89453 -1.91015,1.98438 l 0,0.0195 c 0,1.09375 0.80078,2.0039 1.92969,2.0039 1.1289,0 1.91015,-0.89453 1.91015,-1.98437 z m -1.92969,3.29297 c -1.96484,0 -3.375,-1.46485 -3.375,-3.27344 l 0,-0.0195 c 0,-1.8125 1.42969,-3.29688 3.39454,-3.29688 1.96484,0 3.375,1.46875 3.375,3.27735 l 0,0.0195 c 0,1.8125 -1.42969,3.29297 -3.39454,3.29297" id="path228" inkscape:connector-curvature="0"/>
      <path style="fill:#211e1e;fill-opacity:1;fill-rule:nonzero;stroke:none" d="m 139.12109,359.42578 0,1.35547 3.03907,0 0,1.27344 -3.03907,0 0,2.46484 -1.40234,0 0,-6.37109 4.85156,0 0,1.27734 z m 0,0" id="path230" inkscape:connector-curvature="0"/>
      <path style="fill:#211e1e;fill-opacity:1;fill-rule:nonzero;stroke:none" d="m 148.42187,364.51953 0,-6.37109 4.8086,0 0,1.25 -3.41406,0 0,1.28906 3.0039,0 0,1.25 -3.0039,0 0,1.33594 3.45703,0 0,1.24609 z m 0,0" id="path232" inkscape:connector-curvature="0"/>
      <path style="fill:#211e1e;fill-opacity:1;fill-rule:nonzero;stroke:none" d="m 159.97266,361.33594 c 0,-1.12891 -0.77344,-1.92188 -1.91797,-1.92188 l -1.08594,0 0,3.84375 1.08594,0 c 1.14453,0 1.91797,-0.77734 1.91797,-1.90234 z m -1.91797,3.18359 -2.48828,0 0,-6.37109 2.48828,0 c 2,0 3.38281,1.375 3.38281,3.16797 l 0,0.0195 c 0,1.79297 -1.38281,3.18359 -3.38281,3.18359" id="path234" inkscape:connector-curvature="0"/>
      <path style="fill:#211e1e;fill-opacity:1;fill-rule:nonzero;stroke:none" d="m 166.16406,364.62109 c -1.71094,0 -2.75781,-0.95703 -2.75781,-2.82812 l 0,-3.64453 1.40234,0 0,3.60547 c 0,1.03906 0.51563,1.57421 1.375,1.57421 0.85547,0 1.3711,-0.51953 1.3711,-1.52734 l 0,-3.65234 1.40234,0 0,3.59765 c 0,1.92969 -1.08203,2.875 -2.79297,2.875" id="path236" inkscape:connector-curvature="0"/>
      <path style="fill:#211e1e;fill-opacity:1;fill-rule:nonzero;stroke:none" d="m 174.19141,364.62891 c -1.875,0 -3.26954,-1.44532 -3.26954,-3.27344 l 0,-0.0195 c 0,-1.8125 1.36719,-3.29688 3.32422,-3.29688 1.20313,0 1.92188,0.40235 2.51172,0.98438 l -0.89062,1.02734 c -0.49219,-0.44531 -0.99219,-0.71875 -1.63282,-0.71875 -1.07031,0 -1.84375,0.89453 -1.84375,1.98438 l 0,0.0195 c 0,1.08984 0.75391,2.0039 1.84375,2.0039 0.73047,0 1.17579,-0.29297 1.67969,-0.75 l 0.89063,0.90235 c -0.65625,0.70312 -1.38672,1.13672 -2.61328,1.13672" id="path238" inkscape:connector-curvature="0"/>
      <path style="fill:#211e1e;fill-opacity:1;fill-rule:nonzero;stroke:none" d="m 181.57422,359.78906 -0.84766,2.06641 1.69531,0 z m 1.92969,4.73438 -0.58204,-1.42969 -2.69531,0 -0.58203,1.42969 -1.42969,0 2.73047,-6.42188 1.29297,0 2.73047,6.42188 z m 0,0" id="path240" inkscape:connector-curvature="0"/>
      <path style="fill:#211e1e;fill-opacity:1;fill-rule:nonzero;stroke:none" d="m 188.78125,359.44141 0,5.08203 -1.40234,0 0,-5.08203 -1.9375,0 0,-1.29297 5.28125,0 0,1.29297 z m 0,0" id="path242" inkscape:connector-curvature="0"/>
      <path style="fill:#211e1e;fill-opacity:1;fill-rule:nonzero;stroke:none" d="m 192.70312,358.14844 1.40235,0 0,6.375 -1.40235,0 z m 0,0" id="path244" inkscape:connector-curvature="0"/>
      <path style="fill:#211e1e;fill-opacity:1;fill-rule:nonzero;stroke:none" d="m 201.54297,361.33594 c 0,-1.09375 -0.80078,-2.00391 -1.92969,-2.00391 -1.12891,0 -1.91016,0.89453 -1.91016,1.98438 l 0,0.0195 c 0,1.09375 0.80079,2.0039 1.92969,2.0039 1.12891,0 1.91016,-0.89453 1.91016,-1.98437 z m -1.92969,3.29297 c -1.96484,0 -3.375,-1.46485 -3.375,-3.27344 l 0,-0.0195 c 0,-1.8125 1.42578,-3.29688 3.39453,-3.29688 1.96485,0 3.375,1.46875 3.375,3.27735 l 0,0.0195 c 0,1.8125 -1.42578,3.29297 -3.39453,3.29297" id="path246" inkscape:connector-curvature="0"/>
      <path style="fill:#211e1e;fill-opacity:1;fill-rule:nonzero;stroke:none" d="m 209.45312,364.51953 -3.08593,-4.04687 0,4.04687 -1.38282,0 0,-6.37109 1.29297,0 2.98438,3.92578 0,-3.92578 1.38281,0 0,6.37109 z m 0,0" id="path248" inkscape:connector-curvature="0"/>
      <path style="fill:#211e1e;fill-opacity:1;fill-rule:nonzero;stroke:none" d="m 75.050781,374.73047 -0.609375,0 0,-4.76563 -1.785156,0 0,-0.55468 4.179688,0 0,0.55468 -1.785157,0 z m 0,0" id="path250" inkscape:connector-curvature="0"/>
      <path style="fill:#211e1e;fill-opacity:1;fill-rule:nonzero;stroke:none" d="m 82.339844,369.95703 -3.246094,0 0,1.81641 2.902344,0 0,0.54687 -2.902344,0 0,1.86328 3.28125,0 0,0.54688 -3.882812,0 0,-5.32031 3.847656,0 z m 0,0" id="path252" inkscape:connector-curvature="0"/>
      <path style="fill:#211e1e;fill-opacity:1;fill-rule:nonzero;stroke:none" d="m 88.945312,374.73047 -0.609374,0 0,-4.76563 -1.785157,0 0,-0.55468 4.179688,0 0,0.55468 -1.785157,0 z m 0,0" id="path254" inkscape:connector-curvature="0"/>
      <path style="fill:#211e1e;fill-opacity:1;fill-rule:nonzero;stroke:none" d="m 93.792969,370.07422 -1.214844,2.71094 2.425781,0 z m 2.714843,4.65625 -0.648437,0 -0.621094,-1.40625 -2.894531,0 -0.628906,1.40625 -0.617188,0 2.421875,-5.35547 0.5625,0 z m 0,0" id="path256" inkscape:connector-curvature="0"/>
      <path style="fill:#211e1e;fill-opacity:1;fill-rule:nonzero;stroke:none" d="m 92.816406,368.73437 2.113282,0 0,-0.61328 -2.113282,0 z m 0,0" id="path258" inkscape:connector-curvature="0"/>
      <path style="fill:#211e1e;fill-opacity:1;fill-rule:nonzero;stroke:none" d="m 98.523438,372.33594 0,2.39453 -0.601563,0 0,-5.32031 0.601563,0 0,2.36328 3.070312,0 0,-2.36328 0.59766,0 0,5.32031 -0.59766,0 0,-2.39453 z m 0,0" id="path260" inkscape:connector-curvature="0"/>
      <path style="fill:#211e1e;fill-opacity:1;fill-rule:nonzero;stroke:none" d="m 108.57813,372.45703 c 0,1.55078 -0.89063,2.35547 -2.21875,2.35547 -1.3125,0 -2.21094,-0.80469 -2.21094,-2.30859 l 0,-3.09375 0.60156,0 0,3.05468 c 0,1.14844 0.60547,1.79297 1.625,1.79297 0.98047,0 1.60156,-0.59375 1.60156,-1.7539 l 0,-3.09375 0.60157,0 z m 0,0" id="path262" inkscape:connector-curvature="0"/>
      <path style="fill:#211e1e;fill-opacity:1;fill-rule:nonzero;stroke:none" d="m 111.13281,372.33594 0,2.39453 -0.59765,0 0,-5.32031 0.59765,0 0,2.36328 3.07032,0 0,-2.36328 0.60156,0 0,5.32031 -0.60156,0 0,-2.39453 z m 0,0" id="path264" inkscape:connector-curvature="0"/>
      <path style="fill:#211e1e;fill-opacity:1;fill-rule:nonzero;stroke:none" d="m 121.1875,372.45703 c 0,1.55078 -0.88672,2.35547 -2.21875,2.35547 -1.3125,0 -2.20703,-0.80469 -2.20703,-2.30859 l 0,-3.09375 0.59766,0 0,3.05468 c 0,1.14844 0.60937,1.79297 1.625,1.79297 0.98046,0 1.60546,-0.59375 1.60546,-1.7539 l 0,-3.09375 0.59766,0 z m 0,0" id="path266" inkscape:connector-curvature="0"/>
      <path style="fill:#211e1e;fill-opacity:1;fill-rule:nonzero;stroke:none" d="m 128.42578,369.875 c -1.21484,0 -2.08203,0.97266 -2.08203,2.1875 0,1.21484 0.88281,2.20312 2.09766,2.20312 1.21484,0 2.08203,-0.97265 2.08203,-2.1875 0,-1.21484 -0.88282,-2.20312 -2.09766,-2.20312 m 0,4.94531 c -1.61719,0 -2.70312,-1.26953 -2.70312,-2.74219 0,-1.47265 1.10156,-2.75781 2.71875,-2.75781 1.61718,0 2.70703,1.26953 2.70703,2.74219 0,1.47266 -1.10157,2.75781 -2.72266,2.75781" id="path268" inkscape:connector-curvature="0"/>
      <path style="fill:#211e1e;fill-opacity:1;fill-rule:nonzero;stroke:none" d="m 137.77734,374.73047 -0.60937,0 0,-4.76563 -1.78516,0 0,-0.55468 4.17969,0 0,0.55468 -1.78516,0 z m 0,0" id="path270" inkscape:connector-curvature="0"/>
      <path style="fill:#211e1e;fill-opacity:1;fill-rule:nonzero;stroke:none" d="m 145.06641,369.95703 -3.2461,0 0,1.81641 2.90235,0 0,0.54687 -2.90235,0 0,1.86328 3.28125,0 0,0.54688 -3.8789,0 0,-5.32031 3.84375,0 z m 0,0" id="path272" inkscape:connector-curvature="0"/>
      <path style="fill:#211e1e;fill-opacity:1;fill-rule:nonzero;stroke:none" d="m 152.21094,373.26953 -0.0312,0 -1.9375,-2.83984 0,4.30078 -0.58594,0 0,-5.32031 0.60937,0 1.9375,2.90234 1.9375,-2.90234 0.60938,0 0,5.32031 -0.60156,0 0,-4.3086 z m 0,0" id="path274" inkscape:connector-curvature="0"/>
      <path style="fill:#211e1e;fill-opacity:1;fill-rule:nonzero;stroke:none" d="m 159.03125,370.07422 -1.21484,2.71094 2.42187,0 z m 2.71094,4.65625 -0.64844,0 -0.62109,-1.40625 -2.89454,0 -0.6289,1.40625 -0.61719,0 2.42578,-5.35547 0.5586,0 z m 0,0" id="path276" inkscape:connector-curvature="0"/>
      <path style="fill:#211e1e;fill-opacity:1;fill-rule:nonzero;stroke:none" d="m 158.05078,368.73437 2.11328,0 0,-0.61328 -2.11328,0 z m 0,0" id="path278" inkscape:connector-curvature="0"/>
      <path style="fill:#211e1e;fill-opacity:1;fill-rule:nonzero;stroke:none" d="m 164.71484,374.73047 -0.60547,0 0,-4.76563 -1.78515,0 0,-0.55468 4.17578,0 0,0.55468 -1.78516,0 z m 0,0" id="path280" inkscape:connector-curvature="0"/>
      <path style="fill:#211e1e;fill-opacity:1;fill-rule:nonzero;stroke:none" d="m 169.71875,370.07422 -1.21875,2.71094 2.42578,0 z m 2.71094,4.65625 -0.64453,0 -0.625,-1.40625 -2.89454,0 -0.6289,1.40625 -0.61719,0 2.42578,-5.35547 0.5586,0 z m 0,0" id="path282" inkscape:connector-curvature="0"/>
      <path style="fill:#211e1e;fill-opacity:1;fill-rule:nonzero;stroke:none" d="m 178.16797,372.45703 c 0,1.55078 -0.88672,2.35547 -2.21875,2.35547 -1.3125,0 -2.21094,-0.80469 -2.21094,-2.30859 l 0,-3.09375 0.60156,0 0,3.05468 c 0,1.14844 0.60938,1.79297 1.625,1.79297 0.98047,0 1.60157,-0.59375 1.60157,-1.7539 l 0,-3.09375 0.60156,0 z m 0,0" id="path284" inkscape:connector-curvature="0"/>
      <path style="fill:#211e1e;fill-opacity:1;fill-rule:nonzero;stroke:none" d="m 182.36719,369.96484 -1.64063,0 0,2.16016 1.63281,0 c 0.79688,0 1.36719,-0.41016 1.36719,-1.10156 0,-0.66407 -0.5039,-1.0586 -1.35937,-1.0586 m 1.41797,4.76563 -1.53907,-2.06641 -1.51953,0 0,2.06641 -0.60156,0 0,-5.32031 2.28516,0 c 1.17187,0 1.92187,0.63281 1.92187,1.58984 0,0.88672 -0.60547,1.40625 -1.44141,1.55859 l 1.63282,2.17188 z m 0,0" id="path286" inkscape:connector-curvature="0"/>
      <path style="fill:#211e1e;fill-opacity:1;fill-rule:nonzero;stroke:none" d="m 188.39453,370.07422 -1.21484,2.71094 2.42187,0 z m 2.71094,4.65625 -0.64453,0 -0.625,-1.40625 -2.89453,0 -0.62891,1.40625 -0.61719,0 2.42578,-5.35547 0.5625,0 z m 0,0" id="path288" inkscape:connector-curvature="0"/>
      <path style="fill:#211e1e;fill-opacity:1;fill-rule:nonzero;stroke:none" d="m 196.60156,369.41016 0.58594,0 0,5.32031 -0.48047,0 -3.43359,-4.36328 0,4.36328 -0.58594,0 0,-5.32031 0.5625,0 3.35156,4.26171 z m 0,0" id="path290" inkscape:connector-curvature="0"/>
      <path style="fill:#211e1e;fill-opacity:1;fill-rule:nonzero;stroke:none" d="m 201.69531,374.82031 c -1.66797,0 -2.70312,-1.21484 -2.70312,-2.74219 0,-1.46484 1.07031,-2.75781 2.66797,-2.75781 0.89453,0 1.44921,0.25781 1.98046,0.70703 l -0.38671,0.45313 c -0.41016,-0.35547 -0.86719,-0.60547 -1.61719,-0.60547 -1.17969,0 -2.02344,0.99609 -2.02344,2.1875 0,1.27734 0.8125,2.21875 2.10547,2.21875 0.60937,0 1.17187,-0.23438 1.53516,-0.53125 l 0,-1.32422 -1.61719,0 0,-0.53906 2.19531,0 0,2.12109 c -0.49609,0.44141 -1.23828,0.8125 -2.13672,0.8125" id="path292" inkscape:connector-curvature="0"/>
      <path style="fill:#211e1e;fill-opacity:1;fill-rule:nonzero;stroke:none" d="m 207.96094,370.07422 -1.21485,2.71094 2.42188,0 z m 2.71093,4.65625 -0.64453,0 -0.625,-1.40625 -2.89453,0 -0.6289,1.40625 -0.61719,0 2.42578,-5.35547 0.5625,0 z m 0,0" id="path294" inkscape:connector-curvature="0"/>
      <path style="fill:#211e1e;fill-opacity:1;fill-rule:nonzero;stroke:none" d="m 79.261719,325.91406 6.335937,10.44531 -12.53125,0 z m 0,0" id="path296" inkscape:connector-curvature="0"/>
      <path style="fill:#211e1e;fill-opacity:1;fill-rule:nonzero;stroke:none" d="m 91.792969,325.91406 6.339843,10.44531 -12.535156,0 z m 0,0" id="path298" inkscape:connector-curvature="0"/>
      <path style="fill:#211e1e;fill-opacity:1;fill-rule:nonzero;stroke:none" d="m 104.32813,325.91406 6.33984,10.44531 -12.535158,0 z m 0,0" id="path300" inkscape:connector-curvature="0"/>
      <path style="fill:#211e1e;fill-opacity:1;fill-rule:nonzero;stroke:none" d="m 206.51562,349.52734 c -1.93359,0 -2.5664,-1.58203 -4.5039,-1.58203 -1.9375,0 -2.51563,1.58203 -4.44922,1.58203 -1.9375,0 -2.51953,-1.58203 -4.45313,-1.58203 -1.9375,0 -2.51171,1.58203 -4.44921,1.58203 -1.9375,0 -2.53516,-1.58203 -4.46875,-1.58203 -1.9375,0 -2.51563,1.58203 -4.45313,1.58203 -1.9375,0 -2.51562,-1.58203 -4.45312,-1.58203 -1.9375,0 -2.51172,1.58203 -4.44922,1.58203 -1.9336,0 -2.54688,-1.58203 -4.48047,-1.58203 -1.9375,0 -2.51563,1.58203 -4.45313,1.58203 -1.9375,0 -2.51953,-1.58203 -4.45312,-1.58203 -1.9375,0 -2.51172,1.58203 -4.44922,1.58203 -1.93359,0 -2.53125,-1.58203 -4.46875,-1.58203 -1.93359,0 -2.51563,1.58203 -4.45313,1.58203 -1.93359,0 -2.51562,-1.58203 -4.45312,-1.58203 -1.93359,0 -2.51563,1.58203 -4.44922,1.58203 -1.9375,0 -2.55859,-1.58203 -4.49609,-1.58203 -1.9375,0 -2.51563,1.58203 -4.44922,1.58203 -1.9375,0 -2.51953,-1.58203 -4.45313,-1.58203 -1.9375,0 -2.51171,1.58203 -4.44921,1.58203 -1.9375,0 -2.53516,-1.58203 -4.46875,-1.58203 -1.9375,0 -2.51563,1.58203 -4.45313,1.58203 -1.93359,0 -2.51953,-1.58203 -4.45312,-1.58203 -1.9375,0 -2.51563,1.58203 -4.449224,1.58203 -1.9375,0 -2.546875,-1.58203 -4.480468,-1.58203 -1.9375,0 -2.519532,1.58203 -4.453126,1.58203 -1.9375,0 -2.519531,-1.58203 -4.453124,-1.58203 -1.9375,0 -2.511719,1.58203 -4.449219,1.58203 -1.9375,0 -2.535157,-1.58203 -4.46875,-1.58203 -1.875,0 -2.488281,1.46875 -4.28125,1.5625 l 0,-2.36719 c 0.792969,-0.043 1.363281,-0.34765 1.90625,-0.68359 l 0,-0.004 c 0.679687,-0.41796 1.328125,-0.8789 2.375,-0.8789 1.039062,0 1.695312,0.45703 2.378906,0.8789 l 0.0039,0 c 0.585938,0.36719 1.195313,0.70313 2.085938,0.70313 0.890625,0 1.496093,-0.33594 2.074219,-0.69922 l 0,-0.004 c 0.679687,-0.41796 1.328124,-0.8789 2.375,-0.8789 1.039062,0 1.691406,0.45703 2.371093,0.8789 l 0.0039,0 c 0.582031,0.36719 1.1875,0.70313 2.078124,0.70313 0.890626,0 1.492188,-0.33594 2.074219,-0.69922 l 0,-0.004 c 0.683594,-0.41796 1.332031,-0.8789 2.378907,-0.8789 1.039062,0 1.695312,0.45703 2.382812,0.8789 l 0.0078,0 c 0.589844,0.36719 1.199219,0.70313 2.089844,0.70313 0.890629,0 1.492189,-0.33594 2.074229,-0.69922 l 0,-0.004 c 0.67968,-0.41796 1.32812,-0.8789 2.375,-0.8789 1.04296,0 1.6914,0.45703 2.37109,0.8789 l 0.004,0 c 0.58203,0.36719 1.1875,0.70313 2.07812,0.70313 0.89063,0 1.49609,-0.33594 2.07422,-0.69922 l 0,-0.004 c 0.68359,-0.41796 1.33203,-0.8789 2.37891,-0.8789 1.03906,0 1.69531,0.45703 2.375,0.8789 l 0.008,0 c 0.58594,0.36719 1.19531,0.70313 2.08594,0.70313 0.89062,0 1.49218,-0.33594 2.07421,-0.69922 l 0,-0.004 c 0.67969,-0.41796 1.32813,-0.8789 2.375,-0.8789 1.03907,0 1.69141,0.45703 2.36719,0.8789 l 0.008,0 c 0.58204,0.36719 1.1836,0.70313 2.07813,0.70313 0.89062,0 1.49219,-0.33594 2.07422,-0.69922 l 0,-0.004 c 0.67968,-0.41796 1.33203,-0.8789 2.375,-0.8789 1.04297,0 1.70312,0.45703 2.39453,0.8789 l 0.004,0 c 0.58985,0.36719 1.20313,0.70313 2.09766,0.70313 0.89062,0 1.49609,-0.33594 2.07422,-0.69922 l 0,-0.004 c 0.67968,-0.41796 1.33203,-0.8789 2.375,-0.8789 1.04297,0 1.6914,0.45703 2.37109,0.8789 l 0.004,0 c 0.58203,0.36719 1.1875,0.70313 2.07812,0.70313 0.89454,0 1.4961,-0.33594 2.07813,-0.69922 l 0,-0.004 c 0.67968,-0.41796 1.32812,-0.8789 2.375,-0.8789 1.03906,0 1.69531,0.45703 2.3789,0.8789 l 0.008,0 c 0.58203,0.36719 1.19139,0.70313 2.08203,0.70313 0.89062,0 1.49609,-0.33594 2.07422,-0.69922 l 0,-0.004 c 0.67968,-0.41796 1.32812,-0.8789 2.375,-0.8789 1.04297,0 1.69139,0.45703 2.37109,0.8789 l 0.004,0 c 0.58203,0.36719 1.1875,0.70313 2.07812,0.70313 0.89063,0 1.4961,-0.33594 2.07813,-0.69922 l 0,-0.004 c 0.67968,-0.41796 1.32812,-0.8789 2.375,-0.8789 1.03906,0 1.69531,0.45703 2.38281,0.8789 l 0.008,0 c 0.58985,0.36719 1.19922,0.70313 2.08985,0.70313 0.89062,0 1.49218,-0.33594 2.07422,-0.69922 l 0,-0.004 c 0.67968,-0.41796 1.33203,-0.8789 2.375,-0.8789 1.04296,0 1.6914,0.45703 2.37109,0.8789 l 0.004,0 c 0.58203,0.36719 1.1875,0.70313 2.07812,0.70313 0.89063,0 1.49609,-0.33594 2.07813,-0.69922 l 0,-0.004 c 0.67968,-0.41796 1.32812,-0.8789 2.375,-0.8789 1.03906,0 1.69531,0.45703 2.375,0.8789 l 0.0117,0 c 0.58204,0.36719 1.19141,0.70313 2.08204,0.70313 0.89062,0 1.49218,-0.33594 2.07421,-0.69922 l 0,-0.004 c 0.67969,-0.41796 1.32813,-0.8789 2.375,-0.8789 1.03907,0 1.6875,0.45703 2.36719,0.8789 l 0.008,0 c 0.58204,0.36719 1.1836,0.70313 2.07813,0.70313 0.89062,0 1.49219,-0.33594 2.07422,-0.69922 l 0,-0.004 c 0.68359,-0.41796 1.33203,-0.8789 2.375,-0.8789 1.04297,0 1.70703,0.45703 2.39844,0.8789 l 0.008,0 c 0.59375,0.36719 1.20703,0.70313 2.09764,0.70313 0.89455,0 1.49611,-0.33594 2.07813,-0.69922 l 0,-0.004 c 0.58594,-0.35937 1.16016,-0.73046 1.96484,-0.83593 l 0,2.36718 c -1.60937,0.20704 -2.25389,1.54297 -4.04297,1.54297" id="path302" inkscape:connector-curvature="0"/>
      <path style="fill:#211e1e;fill-opacity:1;fill-rule:nonzero;stroke:none" d="m 209.88281,343.38281 c -1.16015,0.41406 -1.84375,1.39063 -3.36719,1.39063 -1.51562,0 -2.23046,-0.96875 -3.40234,-1.39063 l -0.008,0 c -0.32031,-0.11719 -0.67578,-0.1914 -1.09375,-0.1914 -0.41406,0 -0.76953,0.0742 -1.08594,0.1875 l 0,0.004 c -1.16016,0.41406 -1.84375,1.39063 -3.36328,1.39063 -1.51953,0 -2.20313,-0.96875 -3.35547,-1.39063 l -0.0117,0 c -0.3164,-0.12109 -0.67187,-0.1914 -1.08594,-0.1914 -0.41796,0 -0.76953,0.0703 -1.08593,0.1875 l 0,0.004 c -1.16407,0.41406 -1.84375,1.39063 -3.36328,1.39063 -1.51563,0 -2.21094,-0.96875 -3.3711,-1.39063 l -0.0117,0 c -0.3164,-0.11719 -0.67187,-0.1914 -1.08593,-0.1914 -0.41797,0 -0.76954,0.0742 -1.08985,0.1875 l 0,0.004 c -1.16015,0.41406 -1.84375,1.39063 -3.36328,1.39063 -1.51562,0 -2.19922,-0.96875 -3.35547,-1.39063 l -0.0117,0 c -0.3164,-0.12109 -0.67187,-0.1914 -1.08593,-0.1914 -0.41797,0 -0.76954,0.0703 -1.08594,0.1875 l 0,0.004 c -1.16016,0.41406 -1.84375,1.39063 -3.36328,1.39063 -1.51563,0 -2.22266,-0.96875 -3.38282,-1.39063 l -0.008,0 c -0.32031,-0.11719 -0.67578,-0.1914 -1.08984,-0.1914 -0.41797,0 -0.76953,0.0742 -1.08985,0.1875 l 0,0.004 c -1.16015,0.41406 -1.84375,1.39063 -3.36328,1.39063 -1.51562,0 -2.20312,-0.96875 -3.35547,-1.39063 l -0.0117,0 c -0.31641,-0.12109 -0.67188,-0.1914 -1.08594,-0.1914 -0.41406,0 -0.76953,0.0703 -1.08594,0.1875 l 0,0.004 c -1.16016,0.41406 -1.84375,1.39063 -3.36328,1.39063 -1.51563,0 -2.21094,-0.96875 -3.37109,-1.39063 l -0.008,0 c -0.32031,-0.11719 -0.67578,-0.1914 -1.08984,-0.1914 -0.41797,0 -0.76953,0.0742 -1.08594,0.1875 l 0,0.004 c -1.16015,0.41406 -1.84765,1.39063 -3.36719,1.39063 -1.51171,0 -2.19921,-0.96875 -3.35546,-1.39063 l -0.0117,0 c -0.31641,-0.12109 -0.66797,-0.1914 -1.08594,-0.1914 -0.41406,0 -0.76953,0.0703 -1.08594,0.1875 l 0,0.004 c -1.16015,0.41406 -1.84375,1.39063 -3.36328,1.39063 -1.51562,0 -2.22656,-0.96875 -3.39453,-1.39063 l -0.008,0 c -0.32032,-0.11719 -0.67578,-0.1914 -1.09375,-0.1914 -0.41407,0 -0.76953,0.0742 -1.08594,0.1875 l 0,0.004 c -1.16016,0.41406 -1.84375,1.39063 -3.36328,1.39063 -1.51563,0 -2.20313,-0.96875 -3.35547,-1.39063 l -0.0117,0 c -0.3164,-0.12109 -0.67187,-0.1914 -1.08594,-0.1914 -0.41796,0 -0.76953,0.0703 -1.08984,0.1875 l 0,0.004 c -1.16016,0.41406 -1.83984,1.39063 -3.35937,1.39063 -1.51563,0 -2.21094,-0.96875 -3.375,-1.39063 l -0.008,0 c -0.3164,-0.11719 -0.67187,-0.1914 -1.08984,-0.1914 -0.41406,0 -0.76953,0.0742 -1.08594,0.1875 l 0,0.004 c -1.16015,0.41406 -1.84375,1.39063 -3.36328,1.39063 -1.51562,0 -2.20312,-0.96875 -3.35547,-1.39063 l -0.0117,0 c -0.3164,-0.12109 -0.67187,-0.1914 -1.08593,-0.1914 -0.41407,0 -0.76954,0.0703 -1.08594,0.1875 l 0,0.004 c -1.16016,0.41406 -1.84375,1.39063 -3.363284,1.39063 -1.515625,0 -2.21875,-0.96875 -3.382812,-1.39063 l -0.01172,0 c -0.316406,-0.11719 -0.671875,-0.1914 -1.085937,-0.1914 -0.417969,0 -0.773438,0.0742 -1.089844,0.1875 l 0,0.004 c -1.160156,0.41406 -1.84375,1.39063 -3.363282,1.39063 -1.515624,0 -2.203124,-0.96875 -3.355468,-1.39063 l -0.01172,0 c -0.316406,-0.12109 -0.671875,-0.1914 -1.085937,-0.1914 -0.417969,0 -0.769532,0.0703 -1.085938,0.1875 l 0,0.004 c -1.160156,0.41406 -1.84375,1.39063 -3.363281,1.39063 -1.515625,0 -2.210938,-0.96875 -3.371094,-1.39063 l -0.01172,0 c -0.316406,-0.11719 -0.671875,-0.1914 -1.085937,-0.1914 -0.417969,0 -0.769531,0.0742 -1.089844,0.1875 l 0,0.004 c -1.113281,0.39844 -1.792969,1.30469 -3.191406,1.375 l 0,-2.375 c 1.792969,-0.0937 2.40625,-1.5625 4.28125,-1.5625 1.933593,0 2.53125,1.58203 4.46875,1.58203 1.9375,0 2.511719,-1.58203 4.449219,-1.58203 1.933593,0 2.515624,1.58203 4.453124,1.58203 1.933594,0 2.515626,-1.58203 4.453126,-1.58203 1.933593,0 2.542968,1.58203 4.480468,1.58203 1.933597,0 2.511727,-1.58203 4.449227,-1.58203 1.93359,0 2.51562,1.58203 4.45312,1.58203 1.9375,0 2.51563,-1.58203 4.44922,-1.58203 1.9375,0 2.53516,1.58203 4.47266,1.58203 1.93359,0 2.51171,-1.58203 4.44921,-1.58203 1.9336,0 2.51563,1.58203 4.45313,1.58203 1.93359,0 2.51562,-1.58203 4.44922,-1.58203 1.9375,0 2.55859,1.58203 4.49609,1.58203 1.93359,0 2.51563,-1.58203 4.44922,-1.58203 1.9375,0 2.51953,1.58203 4.45312,1.58203 1.9375,0 2.51563,-1.58203 4.45313,-1.58203 1.9375,0 2.53516,1.58203 4.46875,1.58203 1.9375,0 2.51172,-1.58203 4.44922,-1.58203 1.93359,0 2.51562,1.58203 4.45312,1.58203 1.9375,0 2.51563,-1.58203 4.45313,-1.58203 1.93359,0 2.54687,1.58203 4.48047,1.58203 1.9375,0 2.51562,-1.58203 4.44922,-1.58203 1.9375,0 2.51562,1.58203 4.45312,1.58203 1.93359,0 2.51563,-1.58203 4.45313,-1.58203 1.93359,0 2.53125,1.58203 4.46875,1.58203 1.9375,0 2.51171,-1.58203 4.44921,-1.58203 1.9336,0 2.51563,1.58203 4.45313,1.58203 1.93359,0 2.51172,-1.58203 4.44922,-1.58203 1.9375,0 2.57031,1.58203 4.5039,1.58203 1.78907,0 2.4336,-1.33593 4.04688,-1.54297 l 0,2.36719 c -0.24609,0.0312 -0.47656,0.0781 -0.67969,0.15235 z m 0,0" id="path304" inkscape:connector-curvature="0"/>
    </g>
  </g>
</svg>